<svg id="Layer_1" data-name="Layer 1" xmlns="http://www.w3.org/2000/svg" viewBox="0 0 121.63 149.62"><defs><style>.cls-1{fill:#fff;}</style></defs><path class="cls-1" d="M107.46,93.83H96.6c-1.2,2.45-2.28,4.65-3.28,6.64L87.5,111.88c-3.92,7.44-5.26,9.36-8,14.93h7a2.52,2.52,0,0,0,1.78-1.33l4.32-7.12,5.62-9.28Z"/><path class="cls-1" d="M92.41,98.87C88.56,92.1,85,85.79,83.05,81.68c.8-.49,1.45-.93,2.13-1.3A25,25,0,0,0,97.12,67.24a29.65,29.65,0,0,0,1.8-10.16V51.22a25.13,25.13,0,0,0-3.54-13.14,27,27,0,0,0-9.47-9.47,25.13,25.13,0,0,0-13.14-3.54H22.88a2.47,2.47,0,0,0-2.47,2.46v15H72.77a8.5,8.5,0,0,1,6.36,2.73,8.7,8.7,0,0,1,2.38,6.06v5.75a8.34,8.34,0,0,1-2.76,6.33,9,9,0,0,1-6.12,2.35H29.15a8.77,8.77,0,0,0-8.74,8.74v37.82H37.89V86.63A3.39,3.39,0,0,1,41,83.26l-.63.18c7.19.09,14.63-.24,21.82,0,3,.1,4.52,1.95,6.36,4.36,1.39,1.82,10.26,13,17.94,22.78Z"/><path class="cls-1" d="M99.05,110.54l-5.42,9.12c2.64,3.36,4.42,5.64,4.53,5.82a2.56,2.56,0,0,0,1.78,1.33h7.94C106,122.85,102.67,116.92,99.05,110.54Z"/></svg>