<svg id="Layer_1" data-name="Layer 1" xmlns="http://www.w3.org/2000/svg" viewBox="0 0 341.63 221.58"><defs><style>.cls-1{fill:#42434c;}.cls-2{fill:#ffc600;}</style></defs><path class="cls-1" d="M32.92,147V125.54h4.6a6.82,6.82,0,0,1,2.22.33A4.29,4.29,0,0,1,41.49,127a4.59,4.59,0,0,1,1.08,2,12.33,12.33,0,0,1,.3,3.05,15.09,15.09,0,0,1-.17,2.44,5.07,5.07,0,0,1-.7,1.86A4.36,4.36,0,0,1,40.31,138a5.65,5.65,0,0,1-2.76.59H36V147ZM36,128.43v7.27h1.48a3.13,3.13,0,0,0,1.44-.27,1.7,1.7,0,0,0,.75-.75,2.74,2.74,0,0,0,.29-1.11c0-.44,0-.93,0-1.48s0-1,0-1.42a3.11,3.11,0,0,0-.27-1.19,1.7,1.7,0,0,0-.72-.78,2.86,2.86,0,0,0-1.38-.27Z"/><path class="cls-1" d="M92.36,147V125.54h9.14v2.89H95.43v6.28h5.29v2.89H95.43v6.28h6.07V147Z"/><path class="cls-1" d="M63.2,147V125.54h4.93q5.41,0,5.41,6.28A7.92,7.92,0,0,1,73,135a4.52,4.52,0,0,1-2.06,2.14L74.2,147H71l-2.85-9.14H66.26V147Zm3.06-18.52v6.67H68a3.09,3.09,0,0,0,1.29-.22,1.76,1.76,0,0,0,.75-.65,3,3,0,0,0,.33-1,11.33,11.33,0,0,0,0-2.85,2.88,2.88,0,0,0-.36-1.07,2.43,2.43,0,0,0-2.16-.84Z"/><path class="cls-1" d="M133.14,131.7h-3.07V131a3.29,3.29,0,0,0-.5-1.82,1.83,1.83,0,0,0-1.67-.76,1.93,1.93,0,0,0-1,.24,2,2,0,0,0-.63.6,2.49,2.49,0,0,0-.33.89,5.72,5.72,0,0,0-.09,1,10.33,10.33,0,0,0,0,1.05,2.18,2.18,0,0,0,.23.76,1.68,1.68,0,0,0,.53.57,4.76,4.76,0,0,0,.94.48l2.35.93a5.8,5.8,0,0,1,1.65.92,4.16,4.16,0,0,1,1,1.22,5.62,5.62,0,0,1,.45,1.64,16.1,16.1,0,0,1,.12,2.08,11.13,11.13,0,0,1-.27,2.52,5.39,5.39,0,0,1-.88,2,4.32,4.32,0,0,1-1.65,1.32,5.84,5.84,0,0,1-2.5.48,5.45,5.45,0,0,1-2.07-.39,4.92,4.92,0,0,1-1.65-1.08,5.24,5.24,0,0,1-1.1-1.61,4.9,4.9,0,0,1-.41-2V140.9h3.07v1a2.48,2.48,0,0,0,.5,1.52,1.92,1.92,0,0,0,1.66.67,2.69,2.69,0,0,0,1.22-.22,1.64,1.64,0,0,0,.68-.65,2.39,2.39,0,0,0,.28-1c0-.39,0-.82,0-1.3a13,13,0,0,0-.06-1.39,2.37,2.37,0,0,0-.24-.87,1.7,1.7,0,0,0-.56-.54,6.61,6.61,0,0,0-.92-.45l-2.19-.9a4.91,4.91,0,0,1-2.66-2.15,7.44,7.44,0,0,1-.68-3.36,7.76,7.76,0,0,1,.33-2.28,5.1,5.1,0,0,1,1-1.87,4.51,4.51,0,0,1,1.6-1.24,5.41,5.41,0,0,1,2.33-.47,5.07,5.07,0,0,1,2.09.42,5.27,5.27,0,0,1,1.64,1.11,4.67,4.67,0,0,1,1.39,3.31Z"/><path class="cls-1" d="M163.21,140.84v1.33a4.78,4.78,0,0,1-.38,1.88,5.35,5.35,0,0,1-1,1.58,4.88,4.88,0,0,1-1.55,1.09,4.52,4.52,0,0,1-1.91.41,6.85,6.85,0,0,1-1.77-.24,4.19,4.19,0,0,1-1.62-.84,4.68,4.68,0,0,1-1.19-1.55,5.49,5.49,0,0,1-.47-2.42V130.29a5.2,5.2,0,0,1,.36-1.95,4.66,4.66,0,0,1,1-1.57,4.71,4.71,0,0,1,1.57-1,5.17,5.17,0,0,1,2-.38,4.65,4.65,0,0,1,3.52,1.41,5,5,0,0,1,1,1.64,5.55,5.55,0,0,1,.38,2.06v1.2h-3.07v-1a2.48,2.48,0,0,0-.51-1.56,1.66,1.66,0,0,0-1.39-.66,1.54,1.54,0,0,0-1.51.7,3.68,3.68,0,0,0-.38,1.79v11a2.83,2.83,0,0,0,.41,1.56,1.59,1.59,0,0,0,1.45.63,2.24,2.24,0,0,0,.65-.1,2,2,0,0,0,.65-.35A1.83,1.83,0,0,0,160,143a2.67,2.67,0,0,0,.18-1v-1.06Z"/><path class="cls-1" d="M183.74,147V125.54h4.93q5.42,0,5.42,6.28a7.92,7.92,0,0,1-.59,3.22,4.57,4.57,0,0,1-2.06,2.14l3.31,9.77H191.5l-2.86-9.14h-1.83V147Zm3.07-18.52v6.67h1.74a3.14,3.14,0,0,0,1.3-.22,1.76,1.76,0,0,0,.75-.65,3,3,0,0,0,.33-1,11.33,11.33,0,0,0,0-2.85,2.88,2.88,0,0,0-.36-1.07,2.44,2.44,0,0,0-2.17-.84Z"/><path class="cls-1" d="M214.68,147V125.54h3.07V147Z"/><path class="cls-1" d="M238.77,147V125.54h4.48a6.29,6.29,0,0,1,2.51.45,4.5,4.5,0,0,1,2.65,2.93,7.21,7.21,0,0,1,.28,2v.78a6.89,6.89,0,0,1-.13,1.48,3.54,3.54,0,0,1-.41,1,4.21,4.21,0,0,1-1.56,1.44,3.29,3.29,0,0,1,1.59,1.51,6,6,0,0,1,.51,2.7v1.21a6.2,6.2,0,0,1-1.37,4.33A5.65,5.65,0,0,1,243,147Zm3.07-18.52v5.89h1.38a2.35,2.35,0,0,0,2.06-.77,4,4,0,0,0,.52-2.24,3.37,3.37,0,0,0-.58-2.16,2.62,2.62,0,0,0-2.12-.72Zm0,8.6v6.85h1.32a3.25,3.25,0,0,0,1.46-.27,1.85,1.85,0,0,0,.79-.75,2.82,2.82,0,0,0,.33-1.14c0-.44.06-.92.06-1.45a9.63,9.63,0,0,0-.09-1.41,2.57,2.57,0,0,0-.36-1,1.74,1.74,0,0,0-.81-.62,3.87,3.87,0,0,0-1.35-.19Z"/><path class="cls-1" d="M269.62,147V125.54h9.14v2.89h-6.07v6.28H278v2.89h-5.29v6.28h6.07V147Z"/><path class="cls-1" d="M298.79,147V125.54h4.54a5.27,5.27,0,0,1,4,1.44,5.73,5.73,0,0,1,1.37,4.09v10a6,6,0,0,1-1.46,4.43,5.75,5.75,0,0,1-4.19,1.43Zm3.06-18.52v15.63h1.42a2.27,2.27,0,0,0,1.83-.64,3.16,3.16,0,0,0,.54-2V131.07a3.23,3.23,0,0,0-.51-1.95,2.18,2.18,0,0,0-1.86-.69Z"/><path class="cls-1" d="M15.79,74.42V62.76H39.58c6.36,0,11.24-3.27,13.52-9.18A14.55,14.55,0,0,0,54,49.14c.14-2.61,0-5.23,0-7.85A14,14,0,0,0,40,27.1c-7.43.08-14.86,0-22.29,0-1.7,0-2.14-.51-2.07-2.13.12-2.78.07-5.56,0-8.34,0-1,.31-1.37,1.31-1.36,8.14,0,16.29-.2,24.41.15,10.26.44,17.45,5.84,22,14.88a23.47,23.47,0,0,1,2.39,10.53c0,2.78,0,5.56,0,8.33A25.78,25.78,0,0,1,44.71,74a26.05,26.05,0,0,1-4.22.45c-7.76.05-15.52,0-23.28,0C16.79,74.52,16.36,74.46,15.79,74.42Z"/><path class="cls-1" d="M228,53.9l13.34-30c1.12-2.52,2.24-5,3.44-7.53a1.83,1.83,0,0,1,1.23-1c3.65-.07,7.32,0,11,0a3.71,3.71,0,0,1,.84.31c-1.9,4.28-3.75,8.49-5.62,12.68q-9.32,20.94-18.63,41.87c-1.11,2.49-2.78,4.19-5.63,4.23s-4.54-1.47-5.64-3.94q-9.34-21-18.73-42c-1.9-4.25-3.78-8.51-5.75-13a12.52,12.52,0,0,1,1.49-.22c3.28,0,6.56,0,9.84,0a2,2,0,0,1,2.07,1.42Q219.09,34.54,227,52.25C227.25,52.71,227.55,53.14,228,53.9Z"/><path class="cls-1" d="M176,74.46H164.58c0-.61-.12-1.18-.12-1.75,0-18.53,0-37.06,0-55.59,0-1.48.48-1.87,1.88-1.82,2.84.09,5.68,0,8.52,0,.94,0,1.38.25,1.38,1.29q0,28.53,0,57.07A5,5,0,0,1,176,74.46Z"/><path class="cls-1" d="M325.89,74.44c-.62,0-.94.08-1.26.08-11,0-22,.06-32.95,0a17.46,17.46,0,0,1-16.49-13.79,27.86,27.86,0,0,1-.53-5.15c-.06-7.3.1-14.61-.06-21.91a18,18,0,0,1,13.34-17.76,22.09,22.09,0,0,1,4.87-.53c10.43,0,20.87,0,31.31,0,1.31,0,1.85.31,1.8,1.72-.1,2.78-.09,5.56,0,8.34,0,1.35-.39,1.78-1.76,1.77-10-.05-20.11,0-30.16,0a22.48,22.48,0,0,0-2.46.09,5.91,5.91,0,0,0-5.14,5.49c-.06,1.52.08,3.06,0,4.58s.51,1.83,1.9,1.82c9.83-.05,19.67,0,29.5,0,2.22,0,2.23,0,2.23,2.21,0,2.62-.07,5.23,0,7.85.05,1.36-.39,1.76-1.76,1.75-9.89-.05-19.78,0-29.67,0-2.19,0-2.2,0-2.19,2.25a30,30,0,0,0,.1,4.74,6.07,6.07,0,0,0,6.26,4.91c9.45,0,18.9,0,28.35,0,1.52,0,3.69-.45,4.38.33s.38,3,.41,4.53C325.92,69.85,325.89,72.07,325.89,74.44Z"/><path class="cls-2" d="M145.52,61.75h-7.34c-.81,1.66-1.54,3.15-2.22,4.49L132,74c-2.65,5-3.56,6.33-5.38,10.09h4.71a1.7,1.7,0,0,0,1.21-.9l2.91-4.81,3.8-6.27Z"/><path class="cls-2" d="M129,53.54c.54-.33,1-.62,1.44-.87a16.89,16.89,0,0,0,8.07-8.89c2-5.19,1.72-10.56.56-15.85-1.36-6.21-8.07-12.19-14.36-12.35-12.29-.31-24.59-.18-36.88-.25-.95,0-1.21.44-1.2,1.3,0,2.84.1,5.68,0,8.51-.07,1.6.49,2,2.05,2,10.27-.06,20.54,0,30.82,0,1.15,0,2.3,0,3.44.09A5.54,5.54,0,0,1,128,32.62c0,1.58,0,3.16,0,4.74a4.5,4.5,0,0,1-2.36,4.37,10.08,10.08,0,0,1-4.47,1.14c-8.91.11-17.82.05-26.73.06a17.5,17.5,0,0,0-2.61.15,5.8,5.8,0,0,0-5.19,6.08q0,11.78,0,23.55c0,.57.06,1.14.1,1.76H98.4V72.54c0-5.34,0-10.68,0-16,0-1.38.46-1.79,1.79-1.77,4.87,0,9.89-.17,14.75,0,2,.06,3,1.31,4.3,2.94.94,1.23,6.93,8.82,12.12,15.4l4-7.91C132.75,60.58,130.36,56.32,129,53.54Z"/><path class="cls-2" d="M139.84,73.05l-3.67,6.16c1.78,2.27,3,3.81,3.06,3.93a1.7,1.7,0,0,0,1.21.9h5.36C144.51,81.36,142.28,77.36,139.84,73.05Z"/><path class="cls-1" d="M79.77,186.92V165.51h9.14v2.89H82.83v6.5h5.29v2.88H82.83v9.14Z"/><path class="cls-1" d="M109,186.92V165.51h3.07v21.41Z"/><path class="cls-1" d="M135.12,186.92V168.4h-3.55v-2.89h10.17v2.89h-3.55v18.52Z"/><path class="cls-1" d="M161,186.92V165.51h3l4.63,12.9h.06v-12.9h3.06v21.41h-2.88l-4.69-12.86h-.06v12.86Z"/><path class="cls-1" d="M192.52,186.92V165.51h9.14v2.89h-6.07v6.29h5.29v2.88h-5.29v6.29h6.07v3.06Z"/><path class="cls-1" d="M231.61,171.68h-3.06V171a3.29,3.29,0,0,0-.5-1.82,1.84,1.84,0,0,0-1.67-.77,1.93,1.93,0,0,0-1,.24,2,2,0,0,0-.63.6,2.56,2.56,0,0,0-.33.89,5.83,5.83,0,0,0-.09,1,10.33,10.33,0,0,0,0,1.05,2,2,0,0,0,.23.75,1.65,1.65,0,0,0,.52.57,4.88,4.88,0,0,0,1,.48l2.35.94a5.8,5.8,0,0,1,1.65.91,4.09,4.09,0,0,1,1,1.22,5.71,5.71,0,0,1,.45,1.64,16.26,16.26,0,0,1,.12,2.09,11,11,0,0,1-.27,2.51,5.3,5.3,0,0,1-.87,2,4.32,4.32,0,0,1-1.65,1.32,5.9,5.9,0,0,1-2.5.48,5.54,5.54,0,0,1-2.08-.39,4.92,4.92,0,0,1-1.65-1.08,5.29,5.29,0,0,1-1.1-1.61,4.86,4.86,0,0,1-.4-2v-1.14h3.07v1a2.51,2.51,0,0,0,.49,1.52,1.94,1.94,0,0,0,1.67.68,2.7,2.7,0,0,0,1.22-.23,1.68,1.68,0,0,0,.68-.64,2.55,2.55,0,0,0,.28-1c0-.39.05-.83.05-1.31a10.49,10.49,0,0,0-.07-1.38,2,2,0,0,0-.24-.87,1.61,1.61,0,0,0-.55-.55,7.22,7.22,0,0,0-.92-.45l-2.19-.9a4.83,4.83,0,0,1-2.66-2.15,7.27,7.27,0,0,1-.68-3.35,7.83,7.83,0,0,1,.33-2.29,5.19,5.19,0,0,1,1-1.86,4.57,4.57,0,0,1,1.61-1.25,5.38,5.38,0,0,1,2.33-.47,5.1,5.1,0,0,1,2.09.43,5.39,5.39,0,0,1,1.64,1.11,4.64,4.64,0,0,1,1.38,3.31Z"/><path class="cls-1" d="M261.86,171.68h-3.07V171a3.28,3.28,0,0,0-.49-1.82,1.84,1.84,0,0,0-1.67-.77,1.93,1.93,0,0,0-1,.24,2,2,0,0,0-.63.6,2.58,2.58,0,0,0-.34.89,5.83,5.83,0,0,0-.09,1,10,10,0,0,0,0,1.05,2,2,0,0,0,.23.75,1.65,1.65,0,0,0,.52.57,4.88,4.88,0,0,0,1,.48l2.34.94a5.73,5.73,0,0,1,1.66.91,4.09,4.09,0,0,1,1,1.22,5.71,5.71,0,0,1,.45,1.64,16.26,16.26,0,0,1,.12,2.09,11,11,0,0,1-.27,2.51,5.3,5.3,0,0,1-.87,2,4.32,4.32,0,0,1-1.65,1.32,5.9,5.9,0,0,1-2.5.48,5.54,5.54,0,0,1-2.08-.39,4.92,4.92,0,0,1-1.65-1.08,5.29,5.29,0,0,1-1.1-1.61,4.86,4.86,0,0,1-.4-2v-1.14h3.06v1a2.52,2.52,0,0,0,.5,1.52,1.94,1.94,0,0,0,1.67.68,2.7,2.7,0,0,0,1.22-.23,1.59,1.59,0,0,0,.67-.64,2.39,2.39,0,0,0,.29-1c0-.39,0-.83,0-1.31a12.93,12.93,0,0,0-.06-1.38,2.37,2.37,0,0,0-.24-.87,1.61,1.61,0,0,0-.55-.55,7.22,7.22,0,0,0-.92-.45l-2.19-.9a4.9,4.9,0,0,1-2.67-2.15,7.4,7.4,0,0,1-.67-3.35,7.83,7.83,0,0,1,.33-2.29,5.19,5.19,0,0,1,1-1.86,4.57,4.57,0,0,1,1.61-1.25,5.38,5.38,0,0,1,2.33-.47,5.1,5.1,0,0,1,2.09.43,5.39,5.39,0,0,1,1.64,1.11,4.64,4.64,0,0,1,1.38,3.31Z"/><rect class="cls-2" x="23.91" y="105.78" width="293.81" height="2.93"/><rect class="cls-2" x="23.91" y="203.37" width="293.81" height="2.93"/></svg>