<svg id="Layer_1" data-name="Layer 1" xmlns="http://www.w3.org/2000/svg" viewBox="0 0 564.25 105.93"><defs><style>.cls-1{fill:#fff;}.cls-2{fill:#fec20e;}</style></defs><path class="cls-1" d="M310.86,45.82V27.37h4a5.85,5.85,0,0,1,1.91.29,3.6,3.6,0,0,1,1.5,1,4,4,0,0,1,.94,1.7,10.67,10.67,0,0,1,.26,2.63,12.37,12.37,0,0,1-.15,2.09,4.16,4.16,0,0,1-.61,1.61,3.71,3.71,0,0,1-1.45,1.41,4.8,4.8,0,0,1-2.38.51H313.5v7.2Zm2.64-16v6.27h1.27A2.81,2.81,0,0,0,316,35.9a1.44,1.44,0,0,0,.64-.65,2.26,2.26,0,0,0,.25-1c0-.38,0-.8,0-1.27s0-.84,0-1.23a2.47,2.47,0,0,0-.23-1,1.4,1.4,0,0,0-.62-.67,2.41,2.41,0,0,0-1.19-.24Z"/><path class="cls-1" d="M362.07,45.82V27.37H370v2.49h-5.24v5.42h4.56v2.48h-4.56v5.42H370v2.64Z"/><path class="cls-1" d="M337,45.82V27.37h4.24q4.67,0,4.67,5.42a6.75,6.75,0,0,1-.51,2.77,4,4,0,0,1-1.77,1.84l2.85,8.42h-2.8l-2.46-7.88h-1.58v7.88Zm2.64-16v5.75h1.5a2.61,2.61,0,0,0,1.11-.19,1.49,1.49,0,0,0,.65-.56,2.66,2.66,0,0,0,.29-.89,9,9,0,0,0,.08-1.23,8.75,8.75,0,0,0-.08-1.23,2.7,2.7,0,0,0-.31-.92,2.09,2.09,0,0,0-1.87-.73Z"/><path class="cls-1" d="M397.2,32.69h-2.65v-.6a2.88,2.88,0,0,0-.42-1.57,1.6,1.6,0,0,0-1.44-.66,1.64,1.64,0,0,0-.88.21,1.72,1.72,0,0,0-.55.52,2.3,2.3,0,0,0-.28.76,5.17,5.17,0,0,0-.08.89,7.67,7.67,0,0,0,0,.91,1.9,1.9,0,0,0,.19.65,1.53,1.53,0,0,0,.46.49,4.27,4.27,0,0,0,.81.42l2,.8a4.92,4.92,0,0,1,1.43.79,3.28,3.28,0,0,1,.85,1.05,4.85,4.85,0,0,1,.39,1.41,13.8,13.8,0,0,1,.11,1.8,9.16,9.16,0,0,1-.24,2.16,4.41,4.41,0,0,1-.75,1.7,3.82,3.82,0,0,1-1.42,1.14,5.15,5.15,0,0,1-2.15.41,4.79,4.79,0,0,1-1.79-.33,4.39,4.39,0,0,1-1.43-.94,4.44,4.44,0,0,1-.94-1.38,4.26,4.26,0,0,1-.35-1.72v-1h2.64v.83a2.14,2.14,0,0,0,.43,1.31,1.65,1.65,0,0,0,1.44.58,2.35,2.35,0,0,0,1.05-.19,1.42,1.42,0,0,0,.58-.56,1.93,1.93,0,0,0,.24-.87c0-.33,0-.71,0-1.12a10.12,10.12,0,0,0-.05-1.2,1.85,1.85,0,0,0-.21-.75,1.41,1.41,0,0,0-.48-.46,5.81,5.81,0,0,0-.79-.39L391.13,37a4.19,4.19,0,0,1-2.29-1.85,6.36,6.36,0,0,1-.58-2.89,6.7,6.7,0,0,1,.28-2,4.48,4.48,0,0,1,.86-1.6,3.91,3.91,0,0,1,1.38-1.08,4.62,4.62,0,0,1,2-.4A4.45,4.45,0,0,1,396,28.54a4,4,0,0,1,1.2,2.85Z"/><path class="cls-1" d="M423.1,40.56V41.7a4,4,0,0,1-.33,1.62,4.39,4.39,0,0,1-.89,1.36,4.17,4.17,0,0,1-1.33.94,3.82,3.82,0,0,1-1.65.35,6.3,6.3,0,0,1-1.53-.2A3.69,3.69,0,0,1,416,45a4.06,4.06,0,0,1-1-1.33,4.72,4.72,0,0,1-.4-2.09V31.47a4.46,4.46,0,0,1,.31-1.69,4.05,4.05,0,0,1,.88-1.34,4.14,4.14,0,0,1,1.36-.9,4.7,4.7,0,0,1,1.75-.32,4,4,0,0,1,3,1.22,4.09,4.09,0,0,1,.89,1.41,4.65,4.65,0,0,1,.33,1.77v1h-2.64v-.88a2.16,2.16,0,0,0-.44-1.35,1.45,1.45,0,0,0-1.2-.57,1.32,1.32,0,0,0-1.3.61,3.22,3.22,0,0,0-.33,1.54v9.43a2.49,2.49,0,0,0,.35,1.35,1.39,1.39,0,0,0,1.26.54,2,2,0,0,0,.56-.09,1.65,1.65,0,0,0,.55-.3,1.44,1.44,0,0,0,.39-.57,2.34,2.34,0,0,0,.16-.9v-.91Z"/><path class="cls-1" d="M440.79,45.82V27.37H445q4.66,0,4.66,5.42a6.93,6.93,0,0,1-.5,2.77,3.94,3.94,0,0,1-1.78,1.84l2.85,8.42h-2.8L445,37.94h-1.58v7.88Zm2.64-16v5.75h1.5a2.69,2.69,0,0,0,1.12-.19,1.61,1.61,0,0,0,.65-.56A2.66,2.66,0,0,0,447,34a9,9,0,0,0,.08-1.23,8.75,8.75,0,0,0-.08-1.23,2.5,2.5,0,0,0-.31-.92,2.09,2.09,0,0,0-1.87-.73Z"/><path class="cls-1" d="M467.44,45.82V27.37h2.65V45.82Z"/><path class="cls-1" d="M488.19,45.82V27.37h3.86a5.52,5.52,0,0,1,2.16.39,4.11,4.11,0,0,1,1.47,1,3.8,3.8,0,0,1,.81,1.49,6,6,0,0,1,.25,1.75v.67a5.7,5.7,0,0,1-.12,1.27,3,3,0,0,1-.35.91,3.59,3.59,0,0,1-1.34,1.24,2.89,2.89,0,0,1,1.37,1.3,5.17,5.17,0,0,1,.44,2.33v1a5.32,5.32,0,0,1-1.18,3.73,4.85,4.85,0,0,1-3.77,1.3Zm2.64-16v5.08H492a2,2,0,0,0,1.78-.66,3.42,3.42,0,0,0,.45-1.93,3,3,0,0,0-.5-1.87,2.28,2.28,0,0,0-1.83-.62Zm0,7.41v5.91H492a2.71,2.71,0,0,0,1.26-.24,1.65,1.65,0,0,0,.69-.64,2.49,2.49,0,0,0,.28-1c0-.38.05-.79.05-1.24a7.33,7.33,0,0,0-.08-1.22,2.09,2.09,0,0,0-.31-.88,1.44,1.44,0,0,0-.7-.53,3.34,3.34,0,0,0-1.16-.17Z"/><path class="cls-1" d="M514.77,45.82V27.37h7.87v2.49h-5.23v5.42H522v2.48h-4.56v5.42h5.23v2.64Z"/><path class="cls-1" d="M539.89,45.82V27.37h3.91a4.54,4.54,0,0,1,3.46,1.25,4.9,4.9,0,0,1,1.18,3.52v8.63a5.14,5.14,0,0,1-1.26,3.82,4.94,4.94,0,0,1-3.61,1.23Zm2.64-16V43.33h1.22a1.93,1.93,0,0,0,1.58-.56A2.68,2.68,0,0,0,545.8,41V32.14a2.82,2.82,0,0,0-.44-1.68,1.89,1.89,0,0,0-1.61-.6Z"/><path class="cls-1" d="M309.7,78.24V59.8h7.87v2.49h-5.23v5.59h4.56v2.49h-4.56v7.87Z"/><path class="cls-1" d="M334.9,78.24V59.8h2.64V78.24Z"/><path class="cls-1" d="M357.38,78.24V62.29h-3.05V59.8h8.75v2.49H360V78.24Z"/><path class="cls-1" d="M379.69,78.24V59.8h2.53l4,11.11h.05V59.8h2.65V78.24h-2.49l-4-11.08h-.05V78.24Z"/><path class="cls-1" d="M406.83,78.24V59.8h7.88v2.49h-5.24V67.7H414v2.49h-4.56V75.6h5.24v2.64Z"/><path class="cls-1" d="M440.5,65.11h-2.64v-.59a2.78,2.78,0,0,0-.43-1.57,1.57,1.57,0,0,0-1.43-.66,1.71,1.71,0,0,0-.88.2,1.83,1.83,0,0,0-.55.52,2.15,2.15,0,0,0-.28.77,5.08,5.08,0,0,0-.08.89,7.78,7.78,0,0,0,0,.91,1.7,1.7,0,0,0,.19.65,1.53,1.53,0,0,0,.46.49,4,4,0,0,0,.81.41l2,.8a5.31,5.31,0,0,1,1.43.79,3.67,3.67,0,0,1,.85,1,5,5,0,0,1,.39,1.42,13.71,13.71,0,0,1,.1,1.8,9.29,9.29,0,0,1-.23,2.16,4.47,4.47,0,0,1-.75,1.7A3.7,3.7,0,0,1,438.1,78a5,5,0,0,1-2.15.42,4.6,4.6,0,0,1-1.79-.34,4.12,4.12,0,0,1-1.43-.93,4.61,4.61,0,0,1-.94-1.39,4.07,4.07,0,0,1-.35-1.72V73h2.64v.83a2.09,2.09,0,0,0,.43,1.3,1.66,1.66,0,0,0,1.44.59,2.29,2.29,0,0,0,1-.2,1.42,1.42,0,0,0,.59-.55,2,2,0,0,0,.24-.87c0-.34,0-.71,0-1.13s0-.88-.05-1.19a1.85,1.85,0,0,0-.21-.75,1.44,1.44,0,0,0-.48-.47,5.81,5.81,0,0,0-.79-.39l-1.89-.77a4.2,4.2,0,0,1-2.29-1.86,6.31,6.31,0,0,1-.58-2.88,6.7,6.7,0,0,1,.28-2,4.53,4.53,0,0,1,.86-1.61,3.89,3.89,0,0,1,1.38-1.07,4.59,4.59,0,0,1,2-.4,4.38,4.38,0,0,1,1.8.36,4.52,4.52,0,0,1,1.41,1,4,4,0,0,1,1.19,2.85Z"/><path class="cls-1" d="M466.56,65.11h-2.64v-.59a2.78,2.78,0,0,0-.43-1.57,1.57,1.57,0,0,0-1.44-.66,1.76,1.76,0,0,0-.88.2,1.92,1.92,0,0,0-.54.52,2.37,2.37,0,0,0-.29.77,5.1,5.1,0,0,0-.07.89,7.78,7.78,0,0,0,0,.91,1.7,1.7,0,0,0,.19.65,1.39,1.39,0,0,0,.45.49,4.14,4.14,0,0,0,.82.41l2,.8a5.09,5.09,0,0,1,1.42.79,3.55,3.55,0,0,1,.86,1,5,5,0,0,1,.39,1.42,13.71,13.71,0,0,1,.1,1.8,9.87,9.87,0,0,1-.23,2.16,4.81,4.81,0,0,1-.75,1.7A3.73,3.73,0,0,1,464.15,78a4.93,4.93,0,0,1-2.15.42,4.55,4.55,0,0,1-1.78-.34,4.12,4.12,0,0,1-1.43-.93,4.43,4.43,0,0,1-.94-1.39A4.07,4.07,0,0,1,457.5,74V73h2.64v.83a2.09,2.09,0,0,0,.43,1.3,1.65,1.65,0,0,0,1.43.59,2.3,2.3,0,0,0,1.05-.2,1.42,1.42,0,0,0,.59-.55,2.11,2.11,0,0,0,.24-.87c0-.34,0-.71,0-1.13s0-.88-.05-1.19a2.24,2.24,0,0,0-.21-.75,1.44,1.44,0,0,0-.48-.47,6.46,6.46,0,0,0-.79-.39l-1.89-.77a4.2,4.2,0,0,1-2.29-1.86,6.31,6.31,0,0,1-.58-2.88,6.7,6.7,0,0,1,.28-2,4.38,4.38,0,0,1,.86-1.61,3.89,3.89,0,0,1,1.38-1.07,4.59,4.59,0,0,1,2-.4A4.45,4.45,0,0,1,464,60a4.63,4.63,0,0,1,1.41,1,4,4,0,0,1,1.19,2.85Z"/><path class="cls-1" d="M36.47,27.81A21.77,21.77,0,0,1,58.22,49.56v6.68A21.77,21.77,0,0,1,36.47,78H17.22a1.41,1.41,0,0,1-1.41-1.41V67.94H36.28a12,12,0,0,0,8.53-3.48,11.29,11.29,0,0,0,3.36-8.22V49.75a12,12,0,0,0-3.48-8.52,11.28,11.28,0,0,0-8.22-3.37H15.81V29.23a1.41,1.41,0,0,1,1.41-1.42Z"/><path class="cls-1" d="M153.78,29.23V78H143.73V29.23a1.41,1.41,0,0,1,1.42-1.42h7.21A1.42,1.42,0,0,1,153.78,29.23Z"/><path class="cls-1" d="M195.78,78a4.81,4.81,0,0,1-2.75-.8A5.22,5.22,0,0,1,191.16,75L171,29.84a1.42,1.42,0,0,1,1.29-2h8.82l14.62,32.79,14.62-32.79h8.78a1.42,1.42,0,0,1,1.29,2L200.34,75a5.15,5.15,0,0,1-2,2.25A4.89,4.89,0,0,1,195.78,78Z"/><path class="cls-1" d="M279.2,76.58A1.42,1.42,0,0,1,277.78,78h-27a14.47,14.47,0,0,1-7.56-2,15.6,15.6,0,0,1-5.44-5.45,14.43,14.43,0,0,1-2-7.56V42.85a14.48,14.48,0,0,1,2-7.56,15.57,15.57,0,0,1,5.44-5.44,14.48,14.48,0,0,1,7.56-2h27a1.42,1.42,0,0,1,1.42,1.42v8.63H250.73a5,5,0,0,0-5,5v5h27.19a1.24,1.24,0,0,1,1.24,1.24v7.56a1.25,1.25,0,0,1-1.24,1.25H245.74v5a5,5,0,0,0,5,5H279.2Z"/><path class="cls-2" d="M127.2,67.36H121c-.69,1.41-1.31,2.68-1.88,3.82l-3.35,6.56c-2.26,4.28-3,5.39-4.58,8.59,1.3,0,3.45,0,4,0a1.45,1.45,0,0,0,1-.76c.07-.11,1.09-1.79,2.48-4.1l3.24-5.34C124.57,71.69,127.2,67.36,127.2,67.36Z"/><path class="cls-2" d="M118.54,70.26c-2.21-3.89-4.24-7.53-5.38-9.89.46-.28.83-.53,1.22-.74a14.41,14.41,0,0,0,6.87-7.56,17,17,0,0,0,1-5.85V42.85a14.48,14.48,0,0,0-2-7.56,15.6,15.6,0,0,0-5.45-5.44,14.42,14.42,0,0,0-7.55-2H78.55a1.41,1.41,0,0,0-1.42,1.42v8.63h30.12a4.85,4.85,0,0,1,3.65,1.57,5,5,0,0,1,1.37,3.49v3.3a4.81,4.81,0,0,1-1.58,3.64,5.17,5.17,0,0,1-3.53,1.36h-25a5,5,0,0,0-5,5V78H87.18V63.22A2,2,0,0,1,89,61.28l-.37.11c4.14,0,8.42-.14,12.56,0,1.69,0,2.59,1.12,3.66,2.51.8,1,5.9,7.5,10.31,13.1Z"/><path class="cls-2" d="M122.36,77l-3.12,5.25c1.52,1.93,2.55,3.24,2.61,3.35a1.45,1.45,0,0,0,1,.76c.56,0,3.27,0,4.57,0C126.34,84.05,124.44,80.64,122.36,77Z"/><rect class="cls-2" x="293.81" y="16.05" width="1.67" height="73.83"/></svg>