<svg id="Layer_1" data-name="Layer 1" xmlns="http://www.w3.org/2000/svg" viewBox="0 0 360.4 139.71"><defs><style>.cls-1{fill:#42434c;}.cls-2{fill:#fec20e;}</style></defs><path class="cls-1" d="M24.12,115.89V102.53H27a4.19,4.19,0,0,1,1.39.21,2.63,2.63,0,0,1,1.09.73,2.85,2.85,0,0,1,.67,1.23,7.41,7.41,0,0,1,.19,1.9,9.33,9.33,0,0,1-.1,1.52,3.28,3.28,0,0,1-.44,1.16,3,3,0,0,1-1.05,1,3.61,3.61,0,0,1-1.73.36H26v5.22ZM26,104.33v4.54H27a2,2,0,0,0,.91-.17,1,1,0,0,0,.46-.47,1.7,1.7,0,0,0,.18-.69c0-.28,0-.58,0-.92s0-.61,0-.89a1.87,1.87,0,0,0-.17-.74,1.07,1.07,0,0,0-.45-.49,1.79,1.79,0,0,0-.86-.17Z"/><path class="cls-1" d="M61.2,115.89V102.53h5.71v1.8H63.12v3.92h3.3v1.8h-3.3V114h3.79v1.92Z"/><path class="cls-1" d="M43,115.89V102.53h3.08q3.38,0,3.37,3.92a5,5,0,0,1-.36,2,2.9,2.9,0,0,1-1.29,1.33l2.06,6.1h-2l-1.78-5.71H44.92v5.71Zm1.91-11.56v4.17H46a1.83,1.83,0,0,0,.81-.15,1.08,1.08,0,0,0,.47-.4,1.84,1.84,0,0,0,.2-.65,5.75,5.75,0,0,0,.06-.89,5.93,5.93,0,0,0-.06-.89,1.83,1.83,0,0,0-.22-.66,1.53,1.53,0,0,0-1.35-.53Z"/><path class="cls-1" d="M86.64,106.38H84.72v-.44a2,2,0,0,0-.31-1.13,1.13,1.13,0,0,0-1-.48,1.24,1.24,0,0,0-.64.15,1.29,1.29,0,0,0-.39.38,1.58,1.58,0,0,0-.21.55,4.51,4.51,0,0,0,0,.65,5.79,5.79,0,0,0,0,.65,1.17,1.17,0,0,0,.14.47.94.94,0,0,0,.33.36,2.9,2.9,0,0,0,.59.3l1.46.58a3.56,3.56,0,0,1,1,.57,2.5,2.5,0,0,1,.62.76,3.47,3.47,0,0,1,.28,1,10.23,10.23,0,0,1,.08,1.31,7,7,0,0,1-.17,1.56,3.39,3.39,0,0,1-.55,1.23,2.65,2.65,0,0,1-1,.83,3.62,3.62,0,0,1-1.56.3,3.26,3.26,0,0,1-1.29-.25,3,3,0,0,1-1-.67,3.31,3.31,0,0,1-.69-1,3.24,3.24,0,0,1-.25-1.25v-.71H82v.6a1.58,1.58,0,0,0,.31.94,1.22,1.22,0,0,0,1,.42,1.59,1.59,0,0,0,.76-.14.93.93,0,0,0,.43-.4,1.33,1.33,0,0,0,.17-.63q0-.36,0-.81t0-.87a1.74,1.74,0,0,0-.15-.54,1.14,1.14,0,0,0-.35-.34c-.15-.08-.34-.18-.57-.28l-1.37-.56a3,3,0,0,1-1.66-1.34,4.66,4.66,0,0,1-.42-2.09,4.8,4.8,0,0,1,.2-1.43,3.31,3.31,0,0,1,.62-1.16,2.76,2.76,0,0,1,1-.78,3.42,3.42,0,0,1,1.46-.29,3.24,3.24,0,0,1,1.3.26,3.52,3.52,0,0,1,1,.69,2.91,2.91,0,0,1,.87,2.07Z"/><path class="cls-1" d="M105.39,112.08v.82a3.1,3.1,0,0,1-.23,1.18,3.35,3.35,0,0,1-.65,1,2.89,2.89,0,0,1-1,.68,2.76,2.76,0,0,1-1.19.26,4.22,4.22,0,0,1-1.1-.15,2.62,2.62,0,0,1-1-.53,3,3,0,0,1-.74-1,3.5,3.5,0,0,1-.29-1.51v-7.36a3.22,3.22,0,0,1,.23-1.21,2.82,2.82,0,0,1,.64-1,2.9,2.9,0,0,1,1-.65,3.42,3.42,0,0,1,1.27-.23,2.88,2.88,0,0,1,2.19.88,3.18,3.18,0,0,1,.65,1,3.61,3.61,0,0,1,.23,1.29v.75h-1.91v-.64a1.58,1.58,0,0,0-.32-1,1,1,0,0,0-.86-.41,1,1,0,0,0-1,.44,2.35,2.35,0,0,0-.23,1.12v6.83a1.75,1.75,0,0,0,.25,1,1,1,0,0,0,.91.39,1.49,1.49,0,0,0,.4-.06,1.17,1.17,0,0,0,.41-.22,1.18,1.18,0,0,0,.28-.41,1.75,1.75,0,0,0,.11-.66v-.65Z"/><path class="cls-1" d="M118.2,115.89V102.53h3.08q3.38,0,3.37,3.92a5,5,0,0,1-.36,2,2.85,2.85,0,0,1-1.29,1.33l2.07,6.1h-2l-1.78-5.71h-1.14v5.71Zm1.92-11.56v4.17h1.08a1.83,1.83,0,0,0,.81-.15,1,1,0,0,0,.47-.4,1.66,1.66,0,0,0,.2-.65,5.75,5.75,0,0,0,.06-.89,5.93,5.93,0,0,0-.06-.89,1.66,1.66,0,0,0-.22-.66,1.53,1.53,0,0,0-1.35-.53Z"/><path class="cls-1" d="M137.5,115.89V102.53h1.92v13.36Z"/><path class="cls-1" d="M152.53,115.89V102.53h2.79a3.93,3.93,0,0,1,1.57.28,3.08,3.08,0,0,1,1.06.75,2.92,2.92,0,0,1,.59,1.08,4.48,4.48,0,0,1,.18,1.27v.48a4,4,0,0,1-.09.92,2.45,2.45,0,0,1-.25.66,2.69,2.69,0,0,1-1,.9,2.13,2.13,0,0,1,1,.94,3.74,3.74,0,0,1,.32,1.69v.75a3.89,3.89,0,0,1-.86,2.7,3.55,3.55,0,0,1-2.73.94Zm1.91-11.56V108h.86a1.47,1.47,0,0,0,1.29-.48,2.54,2.54,0,0,0,.32-1.4,2.13,2.13,0,0,0-.36-1.35,1.64,1.64,0,0,0-1.32-.45Zm0,5.37V114h.82a1.92,1.92,0,0,0,.91-.17,1.14,1.14,0,0,0,.5-.47,1.85,1.85,0,0,0,.21-.71q0-.41,0-.9a5.73,5.73,0,0,0,0-.88,1.57,1.57,0,0,0-.23-.64,1.07,1.07,0,0,0-.5-.38,2.51,2.51,0,0,0-.85-.12Z"/><path class="cls-1" d="M171.77,115.89V102.53h5.7v1.8h-3.79v3.92H177v1.8h-3.3V114h3.79v1.92Z"/><path class="cls-1" d="M190,115.89V102.53h2.83a3.29,3.29,0,0,1,2.51.9,3.56,3.56,0,0,1,.85,2.55v6.25a3.69,3.69,0,0,1-.91,2.76,3.55,3.55,0,0,1-2.61.9Zm1.92-11.56v9.75h.88a1.41,1.41,0,0,0,1.14-.4,1.92,1.92,0,0,0,.34-1.26V106a2.06,2.06,0,0,0-.32-1.22,1.38,1.38,0,0,0-1.16-.43Z"/><path class="cls-1" d="M221.77,115.89V102.53h5.7v1.8h-3.78v4H227v1.8h-3.3v5.71Z"/><path class="cls-1" d="M240,115.89V102.53h1.92v13.36Z"/><path class="cls-1" d="M256.3,115.89V104.33h-2.21v-1.8h6.34v1.8h-2.21v11.56Z"/><path class="cls-1" d="M272.45,115.89V102.53h1.84l2.89,8h0v-8h1.92v13.36h-1.8l-2.93-8h0v8Z"/><path class="cls-1" d="M292.11,115.89V102.53h5.7v1.8H294v3.92h3.3v1.8H294V114h3.79v1.92Z"/><path class="cls-1" d="M316.49,106.38h-1.91v-.44a2.1,2.1,0,0,0-.31-1.13,1.15,1.15,0,0,0-1-.48,1.19,1.19,0,0,0-.64.15,1.22,1.22,0,0,0-.4.38,1.57,1.57,0,0,0-.2.55,3.42,3.42,0,0,0-.06.65,5.79,5.79,0,0,0,0,.65,1.36,1.36,0,0,0,.14.47,1,1,0,0,0,.33.36,2.9,2.9,0,0,0,.59.3l1.46.58a3.43,3.43,0,0,1,1,.57,2.36,2.36,0,0,1,.62.76,3.47,3.47,0,0,1,.28,1,10.23,10.23,0,0,1,.08,1.31,7,7,0,0,1-.17,1.56,3.22,3.22,0,0,1-.54,1.23,2.76,2.76,0,0,1-1,.83,3.6,3.6,0,0,1-1.55.3,3.31,3.31,0,0,1-1.3-.25,3,3,0,0,1-1-.67,3.28,3.28,0,0,1-.68-1,3.07,3.07,0,0,1-.26-1.25v-.71h1.92v.6a1.52,1.52,0,0,0,.31.94,1.2,1.2,0,0,0,1,.42,1.61,1.61,0,0,0,.76-.14,1,1,0,0,0,.42-.4,1.46,1.46,0,0,0,.18-.63q0-.36,0-.81c0-.35,0-.64,0-.87a1.74,1.74,0,0,0-.15-.54,1,1,0,0,0-.35-.34,5.08,5.08,0,0,0-.57-.28l-1.37-.56a3.08,3.08,0,0,1-1.66-1.34,4.66,4.66,0,0,1-.42-2.09,5.15,5.15,0,0,1,.2-1.43,3.31,3.31,0,0,1,.62-1.16,2.8,2.8,0,0,1,1-.78,3.38,3.38,0,0,1,1.45-.29,3.21,3.21,0,0,1,1.3.26,3.58,3.58,0,0,1,1,.69,2.94,2.94,0,0,1,.86,2.07Z"/><path class="cls-1" d="M335.36,106.38h-1.92v-.44a2,2,0,0,0-.31-1.13,1.13,1.13,0,0,0-1-.48,1.18,1.18,0,0,0-.63.15,1.22,1.22,0,0,0-.4.38,1.39,1.39,0,0,0-.2.55,3.42,3.42,0,0,0-.06.65,5.79,5.79,0,0,0,0,.65,1.17,1.17,0,0,0,.14.47.94.94,0,0,0,.33.36,2.9,2.9,0,0,0,.59.3l1.46.58a3.43,3.43,0,0,1,1,.57,2.5,2.5,0,0,1,.62.76,3.47,3.47,0,0,1,.28,1,10.23,10.23,0,0,1,.08,1.31,7,7,0,0,1-.17,1.56,3.23,3.23,0,0,1-.55,1.23,2.65,2.65,0,0,1-1,.83,3.6,3.6,0,0,1-1.55.3,3.27,3.27,0,0,1-1.3-.25,3,3,0,0,1-1-.67,3.11,3.11,0,0,1-.68-1,3.07,3.07,0,0,1-.26-1.25v-.71h1.92v.6a1.52,1.52,0,0,0,.31.94,1.2,1.2,0,0,0,1,.42,1.64,1.64,0,0,0,.76-.14,1,1,0,0,0,.42-.4,1.46,1.46,0,0,0,.18-.63c0-.24,0-.51,0-.81s0-.64,0-.87a1.74,1.74,0,0,0-.15-.54,1.14,1.14,0,0,0-.35-.34,6.12,6.12,0,0,0-.57-.28l-1.37-.56a3,3,0,0,1-1.66-1.34,4.66,4.66,0,0,1-.42-2.09,4.8,4.8,0,0,1,.2-1.43,3.31,3.31,0,0,1,.62-1.16,2.76,2.76,0,0,1,1-.78,3.46,3.46,0,0,1,1.46-.29,3.24,3.24,0,0,1,1.3.26,3.39,3.39,0,0,1,1,.69,2.91,2.91,0,0,1,.87,2.07Z"/><path class="cls-1" d="M49.1,23.72A25.76,25.76,0,0,1,74.84,49.45v7.9A25.76,25.76,0,0,1,49.1,83.09H26.33a1.68,1.68,0,0,1-1.68-1.68V71.2H48.88A14.12,14.12,0,0,0,59,67.07a13.28,13.28,0,0,0,4-9.72V49.67a14.15,14.15,0,0,0-4.12-10.08,13.35,13.35,0,0,0-9.72-4H24.65V25.39a1.68,1.68,0,0,1,1.68-1.67Z"/><path class="cls-1" d="M187.89,25.39v57.7H176V25.39a1.68,1.68,0,0,1,1.68-1.67h8.53A1.68,1.68,0,0,1,187.89,25.39Z"/><path class="cls-1" d="M237.58,83.09a5.74,5.74,0,0,1-3.26-1,6,6,0,0,1-2.2-2.57L208.31,26.12a1.68,1.68,0,0,1,1.53-2.36h10.43l17.3,38.79,17.29-38.79h10.39a1.68,1.68,0,0,1,1.54,2.36L243,79.56a6.09,6.09,0,0,1-2.33,2.66A5.81,5.81,0,0,1,237.58,83.09Z"/><path class="cls-1" d="M336.27,81.41a1.68,1.68,0,0,1-1.67,1.68h-32a17.07,17.07,0,0,1-8.94-2.41,18.5,18.5,0,0,1-6.44-6.45,17,17,0,0,1-2.41-8.93V41.51a17.07,17.07,0,0,1,2.41-8.94,18.47,18.47,0,0,1,6.44-6.44,17.07,17.07,0,0,1,8.94-2.41h32a1.67,1.67,0,0,1,1.67,1.67V35.61H302.59a5.89,5.89,0,0,0-5.9,5.9v6h32.16a1.47,1.47,0,0,1,1.48,1.47v9a1.47,1.47,0,0,1-1.48,1.47H296.69V65.3a5.91,5.91,0,0,0,5.9,5.9h33.68Z"/><path class="cls-2" d="M156.44,70.51h-7.39c-.82,1.67-1.55,3.16-2.23,4.52l-4,7.76c-2.67,5.06-3.58,6.37-5.42,10.17h4.75a1.75,1.75,0,0,0,1.21-.91l2.93-4.85,3.83-6.31Z"/><path class="cls-2" d="M146.2,73.94c-2.62-4.61-5-8.9-6.37-11.7.54-.33,1-.63,1.45-.88a17,17,0,0,0,8.12-9,20,20,0,0,0,1.23-6.91v-4a17.07,17.07,0,0,0-2.41-8.94,18.47,18.47,0,0,0-6.44-6.44,17.07,17.07,0,0,0-8.94-2.41h-34a1.68,1.68,0,0,0-1.68,1.67V35.61h35.64a5.79,5.79,0,0,1,4.32,1.85,6,6,0,0,1,1.62,4.13V45.5a5.69,5.69,0,0,1-1.87,4.31,6.11,6.11,0,0,1-4.17,1.6H103.15a6,6,0,0,0-6,5.94V83.09h11.89V65.61a2.31,2.31,0,0,1,2.11-2.29l-.43.12c4.9.06,10-.17,14.85,0,2,.07,3.07,1.33,4.33,3,1,1.24,7,8.88,12.21,15.5Z"/><path class="cls-2" d="M150.72,81.88,147,88.09c1.79,2.28,3,3.84,3.08,4a1.77,1.77,0,0,0,1.21.91h5.41C155.42,90.26,153.18,86.23,150.72,81.88Z"/></svg>