<svg id="Layer_1" data-name="Layer 1" xmlns="http://www.w3.org/2000/svg" viewBox="0 0 559.66 122.08"><defs><style>.cls-1{fill:#ffc600;}</style></defs><polygon class="cls-1" points="556.96 49.52 556.96 7.18 517.2 7.18 556.96 49.52"/><polygon class="cls-1" points="416.35 7.18 517.51 114.91 556.96 114.91 556.96 98.02 471.66 7.18 416.35 7.18"/><polygon class="cls-1" points="315.5 7.18 416.66 114.91 471.97 114.91 370.81 7.18 315.5 7.18"/><polygon class="cls-1" points="2.69 103.68 13.24 114.91 68.56 114.91 2.69 44.77 2.69 103.68"/><polygon class="cls-1" points="214.64 7.18 315.81 114.91 371.12 114.91 269.96 7.18 214.64 7.18"/><polygon class="cls-1" points="12.94 7.18 114.09 114.91 169.41 114.91 68.25 7.18 12.94 7.18"/><polygon class="cls-1" points="113.79 7.18 214.95 114.91 270.26 114.91 169.1 7.18 113.79 7.18"/></svg>